# xmcd CD database file
#
# Track frame offsets:
#	150
#	12021
#	24760
#	38141
#	53135
#	67366
#	79238
#	90242
#	102412
#	114719
#	125080
#	137688
#	145656
#	158981
#	175273
#	184185
#	199123
#	215137
#
# Disc length: 3097 seconds
#
# Revision: 1
# Processed by: cddbd v1.5.1PL2 Copyright (c) Steve Scherf et al.
# Submitted via: CDex 1.70beta2
#
DISCID=000c1712
DTITLE=Various Artist - Country Queens
DYEAR=1998
DGENRE=Country
TTITLE0=The Happiest Girl In The Whole USA - Donna Fargo
TTITLE1=Don't Be Angry
TTITLE2=Somebody Special
TTITLE3=That Was Yesterday
TTITLE4=Do I Love You
TTITLE5=Funny Face
TTITLE6=God Didn't Make Honky Tonk Angels - Dolly Parton
TTITLE7=Making Believe
TTITLE8=Letter To  Heaven
TTITLE9=Release Me
TTITLE10=Two Little Orphans
TTITLE11=Puppy Love
TTITLE12=Rose Garden - Lynn Anderson
TTITLE13=Devil Went Down To Georgia
TTITLE14=Rocky Top
TTITLE15=Could I Have This Dance
TTITLE16=You Needed Me
TTITLE17=Blue Bayou
EXTD=YEAR: 1998
EXTT0=
EXTT1=
EXTT2=
EXTT3=
EXTT4=
EXTT5=
EXTT6=
EXTT7=
EXTT8=
EXTT9=
EXTT10=
EXTT11=
EXTT12=
EXTT13=
EXTT14=
EXTT15=
EXTT16=
EXTT17=
PLAYORDER=
